# xmcd CD database file
#
# Track frame offsets:
#	150
#	14246
#	28407
#	42402
#	56143
#	68423
#	78217
#	93796
#	106383
#	120248
#	131744
#	143842
#	159254
#	173625
#
# Disc length: 2508 seconds
#
# Revision: 4
# Processed by: cddbd v1.5.1PL2 Copyright (c) Steve Scherf et al.
# Submitted via: CDex 1.50Beta6
#
DISCID=b409ca0e
DTITLE=Spatzen 2000 - Wir san guat drauf
DYEAR=1996
DGENRE=Folk-Rock
TTITLE0=Mir vom Land
TTITLE1=Mei Herzerlkönigin
TTITLE2=Echt guat! Wir ziag´n den Huat!
TTITLE3=Daß Engel lügen, wußte ich nicht
TTITLE4=Bad Ischler Polka
TTITLE5=Boarisch tanz´t und boarisch g´locht
TTITLE6=Auch Musikanten haben Gefühle
TTITLE7=I glaub halt immer no an Liebe
TTITLE8=Södingberger Polka
TTITLE9=Ja so a Woazschöller Musi
TTITLE10=Träume, die nie sterben
TTITLE11=Dieser Traum in der Nacht
TTITLE12=Roli´s Egger Bariton
TTITLE13=Wir san guat drauf
EXTD=YEAR: 1996
EXTT0=
EXTT1=
EXTT2=
EXTT3=
EXTT4=
EXTT5=
EXTT6=
EXTT7=
EXTT8=
EXTT9=
EXTT10=
EXTT11=
EXTT12=
EXTT13=
PLAYORDER=
